<svg width="100%" height="100%" viewBox="0 0 27 27" version="1.1" xmlns="http://www.w3.org/2000/svg" xmlns:xlink="http://www.w3.org/1999/xlink"><defs></defs><g id="Page-1" stroke="none" stroke-width="1" fill="none" fill-rule="evenodd"><g id="starShineWhite" fill="#FEFEFE"><polygon id="Fill-1" points="13.2865 16.5769 10.7855 13.3269 13.5025 10.4229 15.7875 13.3269"></polygon><g id="Group-18"><path d="M12.7989,8.4349 C12.7989,8.4349 13.2569,5.5859 13.0529,4.6199 C12.8499,3.6539 12.4939,0.8559 12.1889,0.0929 C11.8829,-0.6701 13.6639,3.5009 13.7149,4.2639 C13.7649,5.0269 13.7149,7.0109 12.7989,8.4349" id="Fill-2"></path><path d="M9.4227,10.4142 C9.4227,10.4142 7.7317,8.0762 6.9047,7.5372 C6.0777,6.9972 3.8477,5.2712 3.0927,4.9472 C2.3367,4.6232 6.5457,6.3142 7.1207,6.8172 C7.6967,7.3212 9.0627,8.7592 9.4227,10.4142" id="Fill-4"></path><path d="M8.4349,14.2011 C8.4349,14.2011 5.5859,13.7431 4.6199,13.9471 C3.6539,14.1501 0.8559,14.5061 0.0929,14.8111 C-0.6701,15.1171 3.5009,13.3361 4.2639,13.2851 C5.0269,13.2351 7.0109,13.2851 8.4349,14.2011" id="Fill-6"></path><path d="M10.4142,17.5773 C10.4142,17.5773 8.0762,19.2683 7.5372,20.0953 C6.9972,20.9223 5.2712,23.1523 4.9472,23.9073 C4.6232,24.6633 6.3142,20.4543 6.8172,19.8793 C7.3212,19.3033 8.7592,17.9373 10.4142,17.5773" id="Fill-8"></path><path d="M14.2011,18.5651 C14.2011,18.5651 13.7431,21.4141 13.9471,22.3801 C14.1501,23.3461 14.5061,26.1441 14.8111,26.9071 C15.1171,27.6701 13.3361,23.4991 13.2851,22.7361 C13.2351,21.9731 13.2851,19.9891 14.2011,18.5651" id="Fill-10"></path><path d="M17.5774,16.5858 C17.5774,16.5858 19.2674,18.9238 20.0954,19.4628 C20.9224,20.0028 23.1524,21.7288 23.9074,22.0528 C24.6634,22.3768 20.4544,20.6858 19.8794,20.1828 C19.3034,19.6788 17.9374,18.2408 17.5774,16.5858" id="Fill-12"></path><path d="M18.5652,12.7989 C18.5652,12.7989 21.4132,13.2569 22.3802,13.0529 C23.3462,12.8499 26.1442,12.4939 26.9072,12.1889 C27.6702,11.8829 23.4992,13.6639 22.7362,13.7149 C21.9732,13.7649 19.9892,13.7149 18.5652,12.7989" id="Fill-14"></path><path d="M16.5858,9.4227 C16.5858,9.4227 18.9238,7.7327 19.4628,6.9047 C20.0028,6.0777 21.7288,3.8477 22.0528,3.0927 C22.3768,2.3367 20.6858,6.5457 20.1828,7.1207 C19.6788,7.6967 18.2408,9.0627 16.5858,9.4227" id="Fill-16"></path></g></g></g></svg>