<svg width="18px" height="18px" viewBox="0 0 18 18" version="1.1" xmlns="http://www.w3.org/2000/svg" xmlns:xlink="http://www.w3.org/1999/xlink"><defs></defs><g id="Page-1" stroke="none" stroke-width="1" fill="none" fill-rule="evenodd"><path d="M15.7697,0 L2.1277,0 C0.9527,0 -0.0003,0.95 -0.0003,2.123 L-0.0003,15.775 C-0.0003,16.947 0.9527,17.897 2.1277,17.897 L15.7697,17.897 C16.9447,17.897 17.8977,16.947 17.8977,15.775 L17.8977,2.123 C17.8977,0.95 16.9447,0 15.7697,0 Z M12.4327,2.539 C12.4327,2.263 12.6567,2.04 12.9327,2.04 L15.3527,2.04 C15.6287,2.04 15.8527,2.263 15.8527,2.539 L15.8527,4.953 C15.8527,5.229 15.6287,5.452 15.3527,5.452 L12.9327,5.452 C12.6567,5.452 12.4327,5.229 12.4327,4.953 L12.4327,2.539 Z M8.9697,5.536 C10.8707,5.536 12.4117,7.073 12.4117,8.969 C12.4117,10.866 10.8707,12.403 8.9697,12.403 C7.0687,12.403 5.5277,10.866 5.5277,8.969 C5.5277,7.073 7.0687,5.536 8.9697,5.536 Z M15.8947,15.317 C15.8947,15.592 15.6707,15.816 15.3947,15.816 L2.5447,15.816 C2.2687,15.816 2.0447,15.592 2.0447,15.317 L2.0447,7.533 L3.7187,7.533 C3.5927,7.991 3.5257,8.472 3.5257,8.969 C3.5257,11.964 5.9677,14.401 8.9697,14.401 C11.9717,14.401 14.4137,11.964 14.4137,8.969 C14.4137,8.472 14.3467,7.991 14.2207,7.533 L15.8947,7.533 L15.8947,15.317 Z" id="instagram" fill="#FF6C2C"></path></g></svg>