<svg width="18px" height="18px" viewBox="0 0 18 18" version="1.1" xmlns="http://www.w3.org/2000/svg" xmlns:xlink="http://www.w3.org/1999/xlink"><defs></defs><g id="Page-1" stroke="none" stroke-width="1" fill="none" fill-rule="evenodd"><path d="M17.9458,16.8424 L17.9458,0.8184 C17.9458,0.3664 17.5788,-0.0006 17.1268,-0.0006 L15.6668,-0.0006 L2.2798,-0.0006 L0.8188,-0.0006 C0.3678,-0.0006 0.0028,0.3644 0.0008,0.8144 L0.0008,15.3824 L-0.0002,16.8444 C0.0008,17.2954 0.3668,17.6614 0.8188,17.6614 L9.8758,17.6614 L9.8758,10.5704 L7.5378,10.5704 L7.5378,8.1274 L9.8758,8.1274 L9.8758,5.4744 C9.8758,3.8854 11.3168,2.8164 12.4798,2.8164 L15.0968,2.8164 L15.0968,5.0394 L13.8898,5.0394 C13.2948,5.0394 12.5018,5.5224 12.5018,6.1164 L12.5018,8.1274 L14.8598,8.1274 L14.8598,10.5704 L12.5018,10.5704 L12.5018,17.6614 L15.6668,17.6614 L17.1268,17.6614 C17.5788,17.6614 17.9458,17.2944 17.9458,16.8424" id="facebook" fill="#FF6C2C"></path></g></svg>